<?xml version="1.0" standalone="no"?>
<!DOCTYPE svg PUBLIC "-//W3C//DTD SVG 20010904//EN"
 "http://www.w3.org/TR/2001/REC-SVG-20010904/DTD/svg10.dtd">
<svg version="1.0" xmlns="http://www.w3.org/2000/svg"
 width="512px" height="512px" viewBox="0 0 512.000000 512.000000"
 preserveAspectRatio="xMidYMid meet">

<g transform="translate(0.000000,512.000000) scale(0.100000,-0.100000)"
fill="#000000" stroke="none">
<path d="M0 2560 l0 -1260 80 0 c75 0 80 1 84 23 6 24 66 729 66 765 l0 22
373 0 372 0 50 -403 50 -402 48 -3 47 -3 0 540 0 541 -460 0 c-361 0 -460 3
-460 13 1 33 -81 1366 -86 1395 l-5 32 -79 0 -80 0 0 -1260z"/>
<path d="M4935 3808 c-4 -14 -85 -1342 -85 -1395 l0 -33 -495 0 -495 0 0 -540
0 -540 80 0 c74 0 80 1 85 23 5 25 95 755 95 775 0 9 81 12 370 12 l370 0 4
-22 c3 -13 19 -189 36 -393 17 -203 33 -376 35 -382 3 -9 31 -13 95 -13 l90 0
0 1260 0 1260 -90 0 c-64 0 -92 -4 -95 -12z"/>
<path d="M765 3358 c-52 -28 -63 -101 -20 -143 l24 -25 381 0 380 0 0 -945 0
-945 65 0 c44 0 67 4 70 13 4 12 105 1453 105 1495 l0 22 748 0 748 0 43 -612
c23 -337 48 -682 54 -765 l10 -153 64 0 63 0 0 945 0 945 425 0 426 0 24 25
c25 24 33 73 19 110 -18 47 56 45 -1836 45 -1264 -1 -1779 -4 -1793 -12z
m2479 -220 c3 -29 6 -70 6 -90 l0 -38 -730 0 -730 0 0 44 c0 24 3 64 6 90 l7
46 717 0 717 0 7 -52z"/>
<path d="M282 2548 c-18 -18 -14 -56 7 -68 13 -6 168 -10 435 -10 364 0 417 2
430 16 20 20 20 38 0 58 -14 14 -67 16 -438 16 -315 0 -425 -3 -434 -12z"/>
<path d="M3876 2544 c-21 -20 -20 -37 2 -57 17 -15 61 -17 431 -17 265 0 419
4 432 10 21 12 25 50 7 68 -9 9 -119 12 -434 12 -371 0 -424 -2 -438 -16z"/>
</g>
</svg>
